<mxfile host="app.diagrams.net" agent="Mozilla/5.0 (Windows NT 10.0; Win64; x64) AppleWebKit/537.36 (KHTML, like Gecko) Chrome/134.0.0.0 Safari/537.36 Edg/134.0.0.0" version="26.1.3">
  <diagram name="Page-1" id="knQFLreWpMhf7assTrFb">
    <mxGraphModel dx="786" dy="518" grid="0" gridSize="10" guides="1" tooltips="1" connect="1" arrows="1" fold="1" page="0" pageScale="1" pageWidth="827" pageHeight="1169" math="0" shadow="0">
      <root>
        <mxCell id="0" />
        <mxCell id="1" parent="0" />
        <mxCell id="n_A1vjY1Jn5EMKk_JTxg-4" value="" style="edgeStyle=orthogonalEdgeStyle;rounded=0;orthogonalLoop=1;jettySize=auto;html=1;" edge="1" parent="1" source="n_A1vjY1Jn5EMKk_JTxg-2" target="n_A1vjY1Jn5EMKk_JTxg-3">
          <mxGeometry relative="1" as="geometry" />
        </mxCell>
        <mxCell id="n_A1vjY1Jn5EMKk_JTxg-2" value="Constitution&lt;div&gt;憲法&lt;/div&gt;" style="rounded=1;whiteSpace=wrap;html=1;absoluteArcSize=1;arcSize=14;strokeWidth=2;" vertex="1" parent="1">
          <mxGeometry x="213" y="283" width="81" height="41" as="geometry" />
        </mxCell>
        <mxCell id="n_A1vjY1Jn5EMKk_JTxg-10" style="edgeStyle=orthogonalEdgeStyle;rounded=0;orthogonalLoop=1;jettySize=auto;html=1;" edge="1" parent="1" source="n_A1vjY1Jn5EMKk_JTxg-3" target="n_A1vjY1Jn5EMKk_JTxg-9">
          <mxGeometry relative="1" as="geometry" />
        </mxCell>
        <mxCell id="n_A1vjY1Jn5EMKk_JTxg-3" value="National Diet&lt;div&gt;国儀&lt;/div&gt;" style="whiteSpace=wrap;html=1;rounded=1;arcSize=14;strokeWidth=2;" vertex="1" parent="1">
          <mxGeometry x="210" y="369" width="87" height="41" as="geometry" />
        </mxCell>
        <mxCell id="n_A1vjY1Jn5EMKk_JTxg-18" style="edgeStyle=orthogonalEdgeStyle;rounded=0;orthogonalLoop=1;jettySize=auto;html=1;" edge="1" parent="1" source="n_A1vjY1Jn5EMKk_JTxg-5" target="n_A1vjY1Jn5EMKk_JTxg-17">
          <mxGeometry relative="1" as="geometry" />
        </mxCell>
        <mxCell id="n_A1vjY1Jn5EMKk_JTxg-5" value="Cabinet&lt;div&gt;内閣&lt;/div&gt;" style="whiteSpace=wrap;html=1;rounded=1;arcSize=14;strokeWidth=2;" vertex="1" parent="1">
          <mxGeometry x="224" y="441" width="59" height="41" as="geometry" />
        </mxCell>
        <mxCell id="n_A1vjY1Jn5EMKk_JTxg-14" style="edgeStyle=orthogonalEdgeStyle;rounded=0;orthogonalLoop=1;jettySize=auto;html=1;" edge="1" parent="1" source="n_A1vjY1Jn5EMKk_JTxg-9" target="n_A1vjY1Jn5EMKk_JTxg-5">
          <mxGeometry relative="1" as="geometry" />
        </mxCell>
        <mxCell id="n_A1vjY1Jn5EMKk_JTxg-9" value="Prime Minister&lt;div&gt;総理大臣&lt;/div&gt;" style="rounded=1;whiteSpace=wrap;html=1;absoluteArcSize=1;arcSize=14;strokeWidth=2;" vertex="1" parent="1">
          <mxGeometry x="90" y="441" width="95" height="41" as="geometry" />
        </mxCell>
        <mxCell id="n_A1vjY1Jn5EMKk_JTxg-20" value="" style="edgeStyle=orthogonalEdgeStyle;rounded=0;orthogonalLoop=1;jettySize=auto;html=1;" edge="1" parent="1" source="n_A1vjY1Jn5EMKk_JTxg-17" target="n_A1vjY1Jn5EMKk_JTxg-19">
          <mxGeometry relative="1" as="geometry" />
        </mxCell>
        <mxCell id="n_A1vjY1Jn5EMKk_JTxg-17" value="&lt;div&gt;Ministries&lt;/div&gt;&lt;div&gt;省庁&lt;/div&gt;" style="rounded=1;whiteSpace=wrap;html=1;absoluteArcSize=1;arcSize=14;strokeWidth=2;" vertex="1" parent="1">
          <mxGeometry x="219" y="518" width="69" height="41" as="geometry" />
        </mxCell>
        <mxCell id="n_A1vjY1Jn5EMKk_JTxg-19" value="Administrative Agencies&lt;div&gt;行政機関&lt;/div&gt;" style="whiteSpace=wrap;html=1;rounded=1;arcSize=14;strokeWidth=2;" vertex="1" parent="1">
          <mxGeometry x="193.5" y="592" width="120" height="60" as="geometry" />
        </mxCell>
      </root>
    </mxGraphModel>
  </diagram>
</mxfile>
